<?xml version="1.0" encoding="UTF-8"?>
<svg id="Layer_2" data-name="Layer 2" xmlns="http://www.w3.org/2000/svg" viewBox="0 0 405.49 92.73">
  <defs>
    <style>
      .cls-1 {
        fill: #00d563;
      }

      .cls-2 {
        fill: #333;
      }
    </style>
  </defs>
  <g id="Layer_1-2" data-name="Layer 1">
    <g>
      <g>
        <path class="cls-2" d="m118.56,46.64h-27.78V0h10.51v38.12h17.27v8.52Z"/>
        <path class="cls-2" d="m153.21,8.55h-13.3v38.09h-10.54V8.55h-13.24V0h37.08v8.55Z"/>
        <path class="cls-2" d="m198.61,46.64h-12.07l-7.25-12c-.54-.91-1.06-1.72-1.56-2.44-.5-.72-1-1.33-1.51-1.84-.51-.51-1.04-.9-1.59-1.17-.55-.27-1.15-.41-1.81-.41h-2.83v17.86h-10.51V0h16.65c11.32,0,16.98,4.23,16.98,12.69,0,1.63-.25,3.13-.75,4.51-.5,1.38-1.2,2.62-2.11,3.72-.91,1.11-2.01,2.06-3.3,2.86-1.29.8-2.73,1.43-4.31,1.89v.13c.69.22,1.37.57,2.02,1.06.65.49,1.28,1.06,1.89,1.71.61.65,1.19,1.35,1.74,2.1s1.06,1.48,1.51,2.2l8.81,13.79Zm-28.62-38.77v12.98h4.55c2.26,0,4.07-.65,5.43-1.95,1.39-1.32,2.08-2.96,2.08-4.91,0-4.08-2.44-6.12-7.32-6.12h-4.75Z"/>
        <path class="cls-2" d="m243.99,46.64h-11.45l-3.32-10.38h-16.59l-3.29,10.38h-11.38L214.94,0h12.46l16.59,46.64Zm-17.17-18.44l-5.01-15.68c-.37-1.17-.63-2.57-.78-4.2h-.26c-.11,1.37-.38,2.72-.81,4.07l-5.07,15.81h11.94Z"/>
        <path class="cls-2" d="m329.08,0l-12.33,46.64h-11.65l-7.74-29.93c-.41-1.56-.66-3.31-.75-5.24h-.13c-.2,2.13-.48,3.87-.85,5.24l-7.94,29.93h-12.13L263.31,0h11.48l6.57,31.06c.28,1.32.49,3.1.62,5.33h.2c.09-1.67.4-3.49.94-5.46l8.46-30.93h11.25l7.64,31.32c.28,1.15.53,2.82.75,5.01h.13c.09-1.71.31-3.45.68-5.2l6.44-31.13h10.6Z"/>
        <path class="cls-2" d="m362.98,46.64h-27.97V0h26.9v8.55h-16.39v10.38h15.26v8.52h-15.26v10.67h17.47v8.52Z"/>
        <path class="cls-2" d="m370.46,46.64V0h16.98c5.2,0,9.21.95,12,2.86,2.8,1.91,4.2,4.6,4.2,8.07,0,2.52-.85,4.72-2.55,6.6-1.7,1.89-3.88,3.2-6.52,3.94v.13c3.32.41,5.97,1.64,7.95,3.68,1.98,2.04,2.98,4.52,2.98,7.45,0,4.27-1.53,7.66-4.59,10.16s-7.23,3.76-12.52,3.76h-17.92Zm10.51-38.9v11.06h4.62c2.17,0,3.88-.53,5.12-1.58,1.25-1.05,1.87-2.5,1.87-4.34,0-3.43-2.56-5.14-7.68-5.14h-3.94Zm0,18.87v12.3h5.69c2.43,0,4.33-.56,5.71-1.69,1.38-1.13,2.07-2.67,2.07-4.62s-.68-3.33-2.03-4.39c-1.36-1.06-3.25-1.59-5.68-1.59h-5.76Z"/>
      </g>
      <path class="cls-1" d="m75.38,51.67c0,27.37-12.75,41.06-38.26,41.06S0,79.36,0,52.63V0h20.59v52.88c0,14.75,5.76,22.12,17.29,22.12s16.97-7.12,16.97-21.36V0h20.53v51.67Z"/>
      <g>
        <path class="cls-2" d="m110.31,87.16c-1.26.63-3.77,1.26-6.99,1.26-7.46,0-13.07-4.71-13.07-13.39s5.61-13.9,13.82-13.9c3.3,0,5.38.71,6.28,1.18l-.82,2.79c-1.3-.63-3.14-1.1-5.34-1.1-6.2,0-10.32,3.96-10.32,10.91,0,6.48,3.73,10.64,10.17,10.64,2.08,0,4.2-.43,5.57-1.1l.71,2.71Z"/>
        <path class="cls-2" d="m136.06,61.91c1.73-.35,4.2-.55,6.56-.55,3.65,0,6.01.67,7.66,2.16,1.33,1.18,2.08,2.98,2.08,5.02,0,3.49-2.2,5.81-4.99,6.75v.12c2.04.71,3.26,2.59,3.89,5.34.86,3.69,1.49,6.24,2.04,7.26h-3.53c-.43-.75-1.02-3.02-1.77-6.32-.79-3.65-2.2-5.02-5.3-5.14h-3.22v11.46h-3.42v-26.11Zm3.42,12.05h3.49c3.65,0,5.97-2,5.97-5.02,0-3.42-2.47-4.91-6.08-4.95-1.65,0-2.83.16-3.38.31v9.66Z"/>
        <path class="cls-2" d="m192.36,75.62h-10.29v9.54h11.46v2.87h-14.88v-26.46h14.29v2.87h-10.87v8.36h10.29v2.83Z"/>
        <path class="cls-2" d="m223.72,79.7l-2.75,8.32h-3.53l8.99-26.46h4.12l9.03,26.46h-3.65l-2.83-8.32h-9.38Zm8.68-2.67l-2.59-7.62c-.59-1.73-.98-3.3-1.37-4.83h-.08c-.39,1.57-.82,3.18-1.33,4.79l-2.59,7.66h7.97Z"/>
        <path class="cls-2" d="m266.94,64.47h-8.05v-2.9h19.59v2.9h-8.09v23.55h-3.45v-23.55Z"/>
        <path class="cls-2" d="m306.32,61.56v26.46h-3.42v-26.46h3.42Z"/>
        <path class="cls-2" d="m356.37,74.52c0,9.11-5.54,13.94-12.29,13.94s-11.89-5.42-11.89-13.43c0-8.4,5.22-13.9,12.29-13.9s11.89,5.54,11.89,13.39Zm-20.53.43c0,5.65,3.06,10.72,8.44,10.72s8.48-4.99,8.48-10.99c0-5.26-2.75-10.76-8.44-10.76s-8.48,5.22-8.48,11.03Z"/>
        <path class="cls-2" d="m382.28,88.02v-26.46h3.73l8.48,13.39c1.96,3.1,3.49,5.89,4.75,8.6l.08-.04c-.31-3.53-.39-6.75-.39-10.87v-11.07h3.22v26.46h-3.45l-8.4-13.43c-1.85-2.94-3.61-5.97-4.95-8.83l-.12.04c.2,3.34.27,6.52.27,10.91v11.31h-3.22Z"/>
      </g>
    </g>
  </g>
</svg>